<svg width="31" height="31" viewBox="0 0 31 31" fill="none" xmlns="http://www.w3.org/2000/svg">
<g clip-path="url(#clip0_328_675)">
<path d="M27.5149 2.55952H23.0357V0H21.756V2.55952H8.95833V0H7.67857V2.55952H3.1994C1.43461 2.55952 0 3.99542 0 5.75893V30.7143H30.7143V5.75893C30.7143 3.99542 29.2797 2.55952 27.5149 2.55952ZM3.1994 3.83929H27.5149C28.5732 3.83929 29.4345 4.70057 29.4345 5.75893V10.2381H1.27976V5.75893C1.27976 4.70057 2.14104 3.83929 3.1994 3.83929ZM1.27976 29.4345V11.5179H29.4345V29.4345H1.27976ZM6.39881 16.6369H24.3155V17.9167H6.39881V16.6369ZM6.39881 23.0357H15.3571V24.3155H6.39881V23.0357Z" fill="white"/>
</g>
<defs>
<clipPath id="clip0_328_675">
<rect width="30.7143" height="30.7143" fill="white"/>
</clipPath>
</defs>
</svg>
