<svg width="64" height="64" viewBox="0 0 64 64" fill="none" xmlns="http://www.w3.org/2000/svg">
<g clip-path="url(#clip0_329_725)">
<path d="M59.5172 11.816L22.6665 48.664C22.4187 48.9128 22.1243 49.1101 21.8001 49.2448C21.4759 49.3795 21.1282 49.4488 20.7772 49.4488C20.4261 49.4488 20.0785 49.3795 19.7542 49.2448C19.43 49.1101 19.1356 48.9128 18.8878 48.664L4.63717 34.4C4.38941 34.1513 4.09497 33.9539 3.77075 33.8192C3.44653 33.6846 3.09891 33.6153 2.74784 33.6153C2.39676 33.6153 2.04914 33.6846 1.72492 33.8192C1.4007 33.9539 1.10626 34.1513 0.858502 34.4C0.609764 34.6478 0.412397 34.9422 0.277726 35.2664C0.143055 35.5907 0.0737305 35.9383 0.0737305 36.2894C0.0737305 36.6404 0.143055 36.9881 0.277726 37.3123C0.412397 37.6365 0.609764 37.9309 0.858502 38.1787L15.1145 52.432C16.6184 53.9331 18.6564 54.7762 20.7812 54.7762C22.906 54.7762 24.944 53.9331 26.4478 52.432L63.2958 15.592C63.5442 15.3443 63.7412 15.05 63.8756 14.7261C64.0101 14.4021 64.0793 14.0548 64.0793 13.704C64.0793 13.3533 64.0101 13.0059 63.8756 12.682C63.7412 12.358 63.5442 12.0637 63.2958 11.816C63.0481 11.5673 62.7536 11.3699 62.4294 11.2352C62.1052 11.1006 61.7576 11.0313 61.4065 11.0312C61.0554 11.0312 60.7078 11.1006 60.3836 11.2352C60.0594 11.3699 59.7649 11.5673 59.5172 11.816Z" fill="#B2955E"/>
</g>
<defs>
<clipPath id="clip0_329_725">
<rect width="64" height="64" fill="white"/>
</clipPath>
</defs>
</svg>
