<svg width="32" height="31" viewBox="0 0 32 31" fill="none" xmlns="http://www.w3.org/2000/svg">
<g clip-path="url(#clip0_328_665)">
<path d="M25.8899 2.55957H10.5328C7.34618 2.55957 4.77386 5.13189 4.77386 8.3185V19.8364C4.77386 23.023 7.34618 25.5953 10.5328 25.5953H25.8899C29.0765 25.5953 31.6489 23.023 31.6489 19.8364V8.3185C31.6489 5.13189 29.0765 2.55957 25.8899 2.55957ZM25.8899 3.83933C27.1057 3.83933 28.2191 4.32564 29.0253 5.11909L21.3852 12.7593C19.6319 14.5125 16.8036 14.5125 15.0503 12.7593L7.39737 5.11909C8.20362 4.32564 9.31701 3.83933 10.5328 3.83933H25.8899ZM30.3691 19.8364C30.3691 22.3063 28.3599 24.3155 25.8899 24.3155H10.5328C8.06284 24.3155 6.05362 22.3063 6.05362 19.8364V8.3185C6.05362 7.52505 6.25838 6.79558 6.61671 6.1429L14.1417 13.6679C15.2679 14.7941 16.7396 15.3572 18.2114 15.3572C19.6831 15.3572 21.1548 14.7941 22.281 13.6679L29.806 6.1429C30.1643 6.78278 30.3691 7.52505 30.3691 8.3185V19.8364ZM23.9703 28.7947C23.9703 29.153 23.6887 29.4346 23.3304 29.4346H6.6935C3.51969 29.4346 0.93457 26.8495 0.93457 23.6756V9.59826C0.93457 9.23993 1.21612 8.95838 1.57445 8.95838C1.93278 8.95838 2.21433 9.23993 2.21433 9.59826V23.6756C2.21433 26.1456 4.22356 28.1548 6.6935 28.1548H23.3304C23.6887 28.1548 23.9703 28.4364 23.9703 28.7947Z" fill="white"/>
</g>
<defs>
<clipPath id="clip0_328_665">
<rect width="30.7143" height="30.7143" fill="white" transform="translate(0.93457)"/>
</clipPath>
</defs>
</svg>
