<svg width="34" height="34" viewBox="0 0 34 34" fill="none" xmlns="http://www.w3.org/2000/svg">
<g clip-path="url(#clip0_328_668)">
<path d="M16.7531 33.5051L15.7703 32.6744C12.696 30.0735 2.66504 21.0477 2.66504 14.0881C2.66504 6.32016 8.9852 0 16.7531 0C24.521 0 30.8412 6.32016 30.8412 14.0881C30.8412 21.0477 20.8102 30.0735 17.736 32.6744L16.7531 33.5051ZM16.7531 1.3961C9.75445 1.3961 4.06114 7.08941 4.06114 14.0881C4.06114 20.6107 14.5654 29.8264 16.6708 31.6092L16.7531 31.679L16.8355 31.6092C18.9408 29.8278 29.4451 20.6107 29.4451 14.0881C29.4451 7.08941 23.7518 1.3961 16.7531 1.3961Z" fill="white"/>
<path d="M16.7534 19.5455C13.6736 19.5455 11.1689 17.0409 11.1689 13.9611C11.1689 10.8813 13.6736 8.37671 16.7534 8.37671C19.8332 8.37671 22.3378 10.8813 22.3378 13.9611C22.3378 17.0409 19.8332 19.5455 16.7534 19.5455ZM16.7534 9.77281C14.4442 9.77281 12.565 11.652 12.565 13.9611C12.565 16.2703 14.4442 18.1494 16.7534 18.1494C19.0625 18.1494 20.9417 16.2703 20.9417 13.9611C20.9417 11.652 19.0625 9.77281 16.7534 9.77281Z" fill="white"/>
</g>
<defs>
<clipPath id="clip0_328_668">
<rect width="33.5065" height="33.5065" fill="white"/>
</clipPath>
</defs>
</svg>
