<svg width="116" height="73" viewBox="0 0 116 73" fill="none" xmlns="http://www.w3.org/2000/svg">
<path d="M84.9494 42.0078L81.2153 50.4094H106.42L102.686 42.0078H84.9494Z" fill="#D9D9D9"/>
<path d="M28.9387 42.9413L44.8083 0H30.8057L13.0691 19.6036L28.9387 42.9413Z" fill="#D9D9D9"/>
<path d="M0 16.8031L14.0026 0H0V16.8031Z" fill="#D9D9D9"/>
<path d="M4.66753 28.0052L0 31.7392V49.4758H18.6701L4.66753 28.0052Z" fill="#D9D9D9"/>
<path d="M41.0743 41.0743L36.4067 49.4758H61.6114L56.9439 41.0743H41.0743Z" fill="#D9D9D9"/>
<path d="M70.9464 47.6088L55.0768 0H86.816L70.9464 47.6088Z" fill="#D9D9D9"/>
<path d="M115.755 47.6088L98.9516 0H115.755V47.6088Z" fill="#D9D9D9"/>
<path d="M2.64573 69.8108H0.715063V62.4763H2.64573V65.5613L4.93393 62.4763H7.1302L4.54576 65.9188L7.20171 69.8108H4.85221L2.64573 66.5011V69.8108ZM12.7581 69.8108L12.3087 68.4522H9.73443L9.27475 69.8108H7.32365L10.0409 62.4763H12.1554L14.842 69.8108H12.7581ZM11.042 64.601L10.2554 66.9301H11.8081L11.042 64.601ZM17.5495 69.8108H15.6189V62.4763H18.6221C20.6039 62.4763 21.7378 63.365 21.7378 64.9279C21.7378 65.8677 21.1759 66.6441 20.185 67.0629L21.9829 69.8108H19.6845L18.1829 67.3694H17.5495V69.8108ZM17.5495 64.0699V65.7758H18.5404C19.3985 65.7758 19.7969 65.5102 19.7969 64.9279C19.7969 64.3457 19.3985 64.0699 18.5404 64.0699H17.5495ZM27.632 69.8108L27.1825 68.4522H24.6083L24.1486 69.8108H22.1975L24.9148 62.4763H27.0293L29.7159 69.8108H27.632ZM25.9158 64.601L25.1293 66.9301H26.682L25.9158 64.601ZM37.4082 69.8108L36.9588 68.4522H34.3846L33.9249 69.8108H31.9738L34.691 62.4763H36.8056L39.4921 69.8108H37.4082ZM35.6921 64.601L34.9055 66.9301H36.4582L35.6921 64.601ZM43.1717 67.0527V69.8108H41.241V67.0527L38.677 62.4763H40.7609L42.2728 65.2855L43.8152 62.4763H45.7561L43.1717 67.0527ZM50.3767 69.8108L49.9273 68.4522H47.353L46.8934 69.8108H44.9423L47.6595 62.4763H49.774L52.4606 69.8108H50.3767ZM48.6606 64.601L47.874 66.9301H49.4267L48.6606 64.601Z" fill="white"/>
<path d="M66.0372 69.8108L65.1484 67.543H61.4403L60.5516 69.8108H60.2145L63.1156 62.4763H63.5038L66.3947 69.8108H66.0372ZM63.2995 62.8338L61.5629 67.2366H65.0259L63.2995 62.8338ZM67.9357 66.8075V69.8108H67.5884V64.4682H67.9255V65.786C68.2728 64.9381 69.0491 64.3661 69.9378 64.3661V64.7338C68.8346 64.7338 67.9357 65.643 67.9357 66.8075ZM72.7597 69.9232C71.4113 69.9232 70.4715 68.7791 70.4715 67.1344C70.4715 65.5 71.4113 64.3661 72.7597 64.3661C73.9242 64.3661 74.7517 65.1322 74.9866 66.4193H74.6495C74.4452 65.3059 73.7404 64.6521 72.7597 64.6521C71.6156 64.6521 70.8188 65.6736 70.8188 67.1344C70.8188 68.6054 71.6156 69.6371 72.7597 69.6371C73.7506 69.6371 74.4554 68.9834 74.6597 67.8597H74.9866C74.7721 69.1468 73.9242 69.9232 72.7597 69.9232ZM76.6146 66.593V69.8108H76.2673V62.4763H76.6146V65.6021C76.9313 64.8769 77.6259 64.3661 78.4329 64.3661C79.5668 64.3661 80.2716 65.0812 80.2716 66.3376V69.8108H79.9243V66.4602C79.9243 65.3059 79.3727 64.6521 78.3716 64.6521C77.4012 64.6521 76.6146 65.5204 76.6146 66.593ZM82.4754 63.2322C82.4754 63.4569 82.3119 63.6204 82.0872 63.6204C81.8625 63.6204 81.699 63.4569 81.699 63.2322C81.699 63.0177 81.8625 62.8645 82.0872 62.8645C82.3119 62.8645 82.4754 63.0177 82.4754 63.2322ZM82.2609 69.8108H81.9136V64.4682H82.2609V69.8108ZM86.4 69.4941V69.8108C86.1651 69.8925 85.9812 69.9129 85.7973 69.9129C85.021 69.9129 84.357 69.5554 84.357 68.4215V64.7441H83.0086V64.4682H84.357V62.8849H84.7043V64.4682H86.4613V64.7441H84.7043V68.3602C84.7043 69.3 85.1844 69.5963 85.8177 69.5963C86.0221 69.5963 86.1753 69.5758 86.4 69.4941ZM89.4318 69.9232C87.9915 69.9232 87.0313 68.7893 87.0313 67.0833C87.0313 65.5306 88.0324 64.3661 89.3808 64.3661C90.8109 64.3661 91.7405 65.5102 91.6894 67.2161H87.3684C87.4195 68.6871 88.206 69.6371 89.4318 69.6371C90.4738 69.6371 91.1991 69.0242 91.383 68.0129H91.7201C91.5157 69.1774 90.627 69.9232 89.4318 69.9232ZM89.3808 64.6521C88.2571 64.6521 87.4297 65.5817 87.3684 66.9301H91.3319C91.2604 65.5 90.5351 64.6521 89.3808 64.6521ZM94.7663 69.9232C93.4178 69.9232 92.478 68.7791 92.478 67.1344C92.478 65.5 93.4178 64.3661 94.7663 64.3661C95.9308 64.3661 96.7582 65.1322 96.9932 66.4193H96.6561C96.4518 65.3059 95.7469 64.6521 94.7663 64.6521C93.6221 64.6521 92.8254 65.6736 92.8254 67.1344C92.8254 68.6054 93.6221 69.6371 94.7663 69.6371C95.7571 69.6371 96.462 68.9834 96.6663 67.8597H96.9932C96.7786 69.1468 95.9308 69.9232 94.7663 69.9232ZM100.715 69.4941V69.8108C100.48 69.8925 100.296 69.9129 100.113 69.9129C99.3362 69.9129 98.6722 69.5554 98.6722 68.4215V64.7441H97.3238V64.4682H98.6722V62.8849H99.0195V64.4682H100.777V64.7441H99.0195V68.3602C99.0195 69.3 99.4996 69.5963 100.133 69.5963C100.337 69.5963 100.491 69.5758 100.715 69.4941ZM105.469 67.7065V64.4682H105.816V69.8108H105.479V68.7076C105.213 69.4022 104.529 69.9129 103.691 69.9129C102.598 69.9129 101.914 69.3102 101.914 67.9823V64.4682H102.261V67.8903C102.261 69.157 102.894 69.6269 103.742 69.6269C104.784 69.6269 105.469 68.7791 105.469 67.7065ZM107.859 66.8075V69.8108H107.511V64.4682H107.848V65.786C108.196 64.9381 108.972 64.3661 109.861 64.3661V64.7338C108.758 64.7338 107.859 65.643 107.859 66.8075ZM112.795 69.9232C111.355 69.9232 110.395 68.7893 110.395 67.0833C110.395 65.5306 111.396 64.3661 112.744 64.3661C114.174 64.3661 115.104 65.5102 115.053 67.2161H110.732C110.783 68.6871 111.569 69.6371 112.795 69.6371C113.837 69.6371 114.562 69.0242 114.746 68.0129H115.083C114.879 69.1774 113.99 69.9232 112.795 69.9232ZM112.744 64.6521C111.62 64.6521 110.793 65.5817 110.732 66.9301H114.695C114.624 65.5 113.898 64.6521 112.744 64.6521Z" fill="white"/>
<line x1="56.6891" y1="58.8108" x2="56.6891" y2="71.9292" stroke="white" stroke-width="0.204304"/>
</svg>
