<svg width="31" height="31" viewBox="0 0 31 31" fill="none" xmlns="http://www.w3.org/2000/svg">
<g clip-path="url(#clip0_328_672)">
<path d="M29.6649 12.3497C29.025 11.7738 28.206 11.4667 27.3485 11.5179C26.4911 11.5562 25.6976 11.9274 25.1217 12.5673L20.3482 17.8143C19.9515 16.3937 18.6461 15.3571 17.0976 15.3571H4.47917C2.00923 15.3571 0 17.3664 0 19.8363V26.2351C0 28.7051 2.00923 30.7143 4.47917 30.7143H12.1065C15.5747 30.7143 18.8765 29.2298 21.1801 26.6446L29.8952 16.8673C31.0598 15.5619 30.9574 13.5399 29.6649 12.3497ZM28.9482 16.0098L20.233 25.7872C18.1726 28.1036 15.2164 29.4345 12.1065 29.4345H4.47917C2.7131 29.4345 1.27976 28.0012 1.27976 26.2351V19.8363C1.27976 18.0702 2.7131 16.6369 4.47917 16.6369H17.0976C18.2622 16.6369 19.1964 17.5839 19.1964 18.7357C19.1964 19.7723 18.4158 20.6682 17.4048 20.8089L9.52143 21.756C9.17589 21.7943 8.91994 22.1143 8.95833 22.4726C8.99673 22.8182 9.30387 23.0869 9.675 23.0357L17.5711 22.0887C18.8765 21.8967 19.9387 20.9625 20.3226 19.7595L26.0688 13.4375C26.4143 13.0536 26.8878 12.836 27.4125 12.8104C27.9244 12.7848 28.4235 12.964 28.8074 13.3095C29.5881 14.0262 29.6521 15.242 28.9482 16.0226V16.0098ZM6.39881 4.14643C6.39881 2.55952 7.69137 1.27976 9.26548 1.27976H10.2381V0.639881C10.2381 0.281548 10.5196 0 10.878 0C11.2363 0 11.5179 0.281548 11.5179 0.639881V1.27976H12.2217C13.4759 1.27976 14.6405 1.95804 15.2676 3.04583C15.4467 3.35298 15.3443 3.7369 15.0372 3.91607C14.7301 4.09524 14.3333 3.99286 14.167 3.68571C13.7702 2.99464 13.028 2.55952 12.2217 2.55952H9.26548C8.38244 2.55952 7.67857 3.27619 7.67857 4.14643C7.67857 4.8375 8.11369 5.43899 8.76637 5.65655L13.3991 7.20506C14.5765 7.60179 15.3571 8.68958 15.3571 9.93095C15.3571 11.5179 14.0646 12.7976 12.4905 12.7976H11.5179V13.4375C11.5179 13.7958 11.2363 14.0774 10.878 14.0774C10.5196 14.0774 10.2381 13.7958 10.2381 13.4375V12.7976H9.53423C8.28006 12.7976 7.11548 12.1193 6.48839 11.0315C6.30923 10.7244 6.41161 10.3405 6.71875 10.1613C7.02589 9.98214 7.42262 10.0845 7.58899 10.3917C7.98571 11.0827 8.72798 11.5179 9.53423 11.5179H12.4905C13.3735 11.5179 14.0774 10.8012 14.0774 9.93095C14.0774 9.23988 13.6423 8.63839 12.9896 8.42083L8.35685 6.87232C7.17946 6.47559 6.39881 5.3878 6.39881 4.14643Z" fill="white"/>
</g>
<defs>
<clipPath id="clip0_328_672">
<rect width="30.7143" height="30.7143" fill="white"/>
</clipPath>
</defs>
</svg>
