<svg width="31" height="31" viewBox="0 0 31 31" fill="none" xmlns="http://www.w3.org/2000/svg">
<g clip-path="url(#clip0_328_662)">
<path d="M28.5001 2.26505L27.0668 1.01088C25.7614 -0.294473 23.5474 -0.358461 22.1397 1.07487L19.7465 4.21029C18.4028 5.55404 18.4028 7.74243 19.7465 9.07338L21.6534 11.0314C19.5802 15.8945 15.7537 19.7338 11.0442 21.6534L9.08613 19.7466C8.43345 19.0939 7.57601 18.7356 6.65458 18.7356C5.73315 18.7356 4.87571 19.0939 4.28702 19.6954L1.03643 22.2037C-0.307324 23.5475 -0.307324 25.7359 1.01083 27.0412L2.31619 28.5386C3.72393 29.9463 5.61797 30.727 7.67839 30.727C17.5965 30.727 30.7397 17.571 30.7397 7.66565C30.7397 5.61803 29.959 3.71118 28.5257 2.27785L28.5001 2.26505ZM7.65279 29.4344C5.93791 29.4344 4.36381 28.7945 3.22482 27.6555L1.91946 26.1454C1.07482 25.3008 1.07482 23.9314 1.85547 23.138L5.10607 20.6296C5.51559 20.2201 6.05309 19.9898 6.64178 19.9898C7.23047 19.9898 7.76797 20.2201 8.1775 20.6296L10.4427 22.8436C10.6218 23.0228 10.8778 23.074 11.1209 22.9844C16.4576 20.9496 20.7959 16.6112 23.0099 11.1082C23.0995 10.8778 23.0483 10.6091 22.8692 10.4171L20.6552 8.15196C19.8105 7.30731 19.8105 5.93797 20.7064 5.02934L23.0995 1.89392C23.9442 1.04928 25.3135 1.04928 26.1965 1.91951L27.6299 3.17368C28.7945 4.33826 29.4343 5.91237 29.4343 7.62725C29.4343 16.7903 16.8159 29.4088 7.65279 29.4088V29.4344Z" fill="white"/>
</g>
<defs>
<clipPath id="clip0_328_662">
<rect width="30.7143" height="30.7143" fill="white"/>
</clipPath>
</defs>
</svg>
